HIERARCHY
ROOT Hips
{
    OFFSET 0.000000 0.000000 0.000000
    CHANNELS 6 Xposition Yposition Zposition Zrotation Xrotation Yrotation
    JOINT Spine
    {
        OFFSET -0.000000 8.834163 0.000000
        CHANNELS 3 Zrotation Xrotation Yrotation
        JOINT Spine1
        {
            OFFSET -0.000000 17.855492 0.000000
            CHANNELS 3 Zrotation Xrotation Yrotation
            JOINT Neck
            {
                OFFSET -0.000000 17.782162 1.616560
                CHANNELS 3 Zrotation Xrotation Yrotation
                JOINT Head
                {
                    OFFSET -0.000000 15.082717 -2.154674
                    CHANNELS 3 Zrotation Xrotation Yrotation
                    End Site
                    {
                        OFFSET -0.000000 26.933422 0.000000
                    }
                }
            }
            JOINT LeftShoulder
            {
                OFFSET 4.280775 15.989452 -0.632416
                CHANNELS 3 Zrotation Xrotation Yrotation
                JOINT LeftArm
                {
                    OFFSET 11.735877 0.000000 0.000000
                    CHANNELS 3 Zrotation Xrotation Yrotation
                    JOINT LeftForeArm
                    {
                        OFFSET 33.149986 0.000000 0.000000
                        CHANNELS 3 Zrotation Xrotation Yrotation
                        JOINT LeftHand
                        {
                            OFFSET 28.572401 0.000000 0.000000
                            CHANNELS 3 Zrotation Xrotation Yrotation
                            End Site
                            {
                                OFFSET 16.160055 0.000000 0.000000
                            }
                        }
                    }
                }
            }
            JOINT RightShoulder
            {
                OFFSET -4.290631 15.989452 -0.632416
                CHANNELS 3 Zrotation Xrotation Yrotation
                JOINT RightArm
                {
                    OFFSET -11.735877 0.000000 0.000000
                    CHANNELS 3 Zrotation Xrotation Yrotation
                    JOINT RightForeArm
                    {
                        OFFSET -33.149986 0.000000 0.000000
                        CHANNELS 3 Zrotation Xrotation Yrotation
                        JOINT RightHand
                        {
                            OFFSET -28.572401 0.000000 0.000000
                            CHANNELS 3 Zrotation Xrotation Yrotation
                            End Site
                            {
                                OFFSET -16.160055 0.000000 0.000000
                            }
                        }
                    }
                }
            }
        }
    }
    JOINT LeftUpLeg
    {
        OFFSET 10.773369 0.000000 0.000000
        CHANNELS 3 Zrotation Xrotation Yrotation
        JOINT LeftLeg
        {
            OFFSET -0.000000 -54.062664 0.000000
            CHANNELS 3 Zrotation Xrotation Yrotation
            JOINT LeftFoot
            {
                OFFSET -0.000000 -48.941059 0.000000
                CHANNELS 3 Zrotation Xrotation Yrotation
                JOINT LeftToeBase
                {
                    OFFSET -0.000000 -7.002690 16.160055
                    CHANNELS 3 Zrotation Xrotation Yrotation
                    End Site
                    {
                        OFFSET -0.000000 0.000000 4.309348
                    }
                }
            }
        }
    }
    JOINT RightUpLeg
    {
        OFFSET -10.773369 0.000000 0.000000
        CHANNELS 3 Zrotation Xrotation Yrotation
        JOINT RightLeg
        {
            OFFSET -0.000000 -54.062664 0.000000
            CHANNELS 3 Zrotation Xrotation Yrotation
            JOINT RightFoot
            {
                OFFSET -0.000000 -48.941059 0.000000
                CHANNELS 3 Zrotation Xrotation Yrotation
                JOINT RightToeBase
                {
                    OFFSET -0.000000 -7.002690 16.160055
                    CHANNELS 3 Zrotation Xrotation Yrotation
                    End Site
                    {
                        OFFSET -0.000000 0.000000 4.309348
                    }
                }
            }
        }
    }
}
MOTION
Frames:    11
Frame Time:    0.008333
6.640922    85.151100    6.468473    23.302040    5.512730    -59.812546    -10.528800    -27.264322    -10.208099    14.221079    16.494825    -9.719439    6.326682    26.646976    -5.874936    -8.976709    -27.745300    -8.847196    8.287789    -6.597958    -3.441103    -16.831417    9.162472    -44.767620    5.405093    -30.780012    -96.294823    39.722301    -22.265327    9.632617    2.780712    -1.875139    20.447582    22.064318    6.774527    51.882473    19.126595    -28.852612    87.479912    -50.548443    -41.109444    -7.661431    14.461814    -3.259946    9.663830    -8.206381    45.931923    18.618969    -28.385807    -20.366726    -18.528252    0.000000    0.000000    0.000000    -71.093620    -64.782227    -55.024197    39.301632    66.029320    19.682894    -9.233817    -13.505175    -42.346542    0.000000    0.000000    0.000000    
6.168702    85.365814    6.776948    24.291536    4.900937    -60.697945    -12.555154    -28.342958    -11.170878    15.677636    17.659370    -10.438748    8.568054    25.634604    -5.736022    -10.954134    -27.395676    -9.278930    9.277887    -8.052909    -5.729510    -15.712109    6.766718    -46.017109    3.671358    -29.901730    -90.648666    39.929272    -24.116587    7.654040    4.357952    -3.027122    21.183342    22.075829    4.471209    53.904488    18.238020    -31.837204    79.238106    -48.482853    -41.585365    -6.936991    13.502275    -3.209417    9.620277    -7.476712    44.709629    21.172993    -28.413424    -16.554976    -22.703041    0.000000    0.000000    0.000000    -71.313782    -65.328094    -54.224449    38.007591    65.376518    19.651329    -10.328629    -14.006086    -42.702389    0.000000    0.000000    0.000000    
5.802942    85.537621    7.078472    25.371843    4.406662    -61.551155    -13.913211    -29.428221    -12.005007    16.479361    18.332863    -11.011422    10.265405    25.526587    -5.690398    -12.202737    -27.484728    -9.566764    10.054653    -9.077805    -8.162100    -14.762866    4.460624    -46.855106    1.782687    -28.740023    -83.883217    41.368637    -25.836418    4.417416    5.893432    -3.372015    22.669325    21.941341    2.369022    55.697247    16.057663    -35.076450    70.542526    -45.913582    -41.937588    -6.348272    12.620988    -3.410616    9.254602    -7.132147    43.608799    24.106010    -28.036583    -12.781022    -26.526827    0.000000    0.000000    0.000000    -71.766899    -65.889481    -53.822983    36.181396    64.467819    19.026962    -11.070696    -14.552828    -40.010948    0.000000    0.000000    0.000000    
5.418702    85.698334    7.375594    26.475380    3.996437    -62.466549    -15.350874    -30.708729    -12.827100    17.519081    19.148815    -11.565854    11.937005    25.159893    -5.522353    -13.561612    -27.172049    -9.762645    11.101713    -9.931220    -10.161643    -13.213819    3.114120    -48.286896    2.661725    -28.645563    -74.382164    43.345055    -26.191490    1.880121    7.254471    -3.286530    24.082968    21.588614    -0.079976    58.037258    13.087388    -38.494053    60.938095    -44.097019    -42.110527    -7.400870    11.798552    -3.697092    8.901132    -6.748948    42.541977    27.126049    -27.636509    -8.981219    -30.741814    0.000000    0.000000    0.000000    -72.069885    -66.502899    -53.496384    34.553085    63.510197    17.347359    -12.108646    -15.345123    -36.019615    0.000000    0.000000    0.000000    
5.110268    85.828667    7.742900    27.784340    3.514374    -63.358459    -16.774689    -32.044575    -13.489454    18.841602    19.852003    -11.966552    12.673833    24.410662    -5.402026    -14.173462    -26.563940    -9.825303    11.982476    -10.533340    -11.715816    -12.512170    1.361669    -50.421474    4.074549    -27.913443    -64.561653    45.735119    -25.244587    0.975411    8.056364    -3.405159    25.442745    20.977158    -1.836127    60.216854    9.094443    -42.360710    51.302361    -42.728104    -42.752777    -9.807802    10.752554    -4.171139    8.569304    -6.346887    41.467999    29.977598    -26.896339    -5.396431    -34.788727    0.000000    0.000000    0.000000    -73.446884    -67.054115    -54.262672    33.755741    62.863052    14.578195    -12.050213    -16.876352    -32.841820    0.000000    0.000000    0.000000    
4.805099    85.905464    8.170184    29.104092    2.786254    -64.222061    -18.210402    -33.253689    -13.912804    20.304178    20.523645    -12.145987    13.347216    23.292242    -5.379359    -15.226434    -25.753141    -10.182405    12.880094    -10.856397    -12.572201    -12.331499    -0.660589    -53.703865    6.211194    -26.630154    -54.272789    47.190269    -22.966324    1.949053    8.514229    -3.589993    26.693960    20.358395    -3.660547    62.201767    4.950906    -46.057869    41.987556    -44.165924    -43.066971    -14.939029    9.407480    -4.523799    8.011510    -6.022970    40.289928    32.968273    -25.980129    -2.087117    -38.805000    0.000000    0.000000    0.000000    -75.527611    -67.446838    -55.482281    33.779068    62.251701    13.623762    -13.329162    -17.243343    -32.234505    0.000000    0.000000    0.000000    
4.458536    85.880211    8.648565    29.915005    1.879504    -64.985710    -18.331156    -33.552719    -13.838561    20.934145    20.295799    -12.056654    12.517109    22.820379    -5.352521    -14.884128    -25.315472    -10.089581    13.331873    -10.487032    -12.411688    -11.349485    -2.230122    -57.662483    8.628043    -25.340582    -43.902691    47.279964    -20.106256    5.007913    8.682491    -3.337963    28.959749    21.240017    -6.760205    64.107544    -0.307152    -47.663036    30.642626    -42.510738    -42.717243    -17.679796    8.110258    -4.328633    7.554785    -5.380904    39.150166    35.634949    -25.013632    1.350495    -43.078236    0.000000    0.000000    0.000000    -76.943275    -67.607071    -56.885876    32.968124    62.558262    16.779408    -15.650200    -16.784243    -34.078777    0.000000    0.000000    0.000000    
4.119513    85.804863    9.172042    30.448675    0.852490    -65.583832    -18.036612    -33.624783    -13.235570    21.214275    20.164730    -11.558601    11.650784    22.092144    -5.531296    -14.339706    -24.900145    -10.166471    13.526845    -10.178891    -12.661889    -10.356630    -4.304436    -61.711720    9.744726    -23.183939    -34.147888    48.824310    -16.614702    8.773151    9.124125    -3.420466    30.907894    21.693495    -9.500218    65.264801    -3.691616    -50.375202    22.145567    -45.400455    -43.460968    -22.188400    6.680152    -3.930871    7.134303    -5.013579    42.148460    -9.496090    -17.794668    -17.459520    1.969880    0.000000    0.000000    0.000000    -78.662148    -67.461281    -58.319408    33.213715    63.247879    21.439844    -17.712597    -15.577287    -38.072151    0.000000    0.000000    0.000000    
3.855737    85.674171    9.639561    30.803576    -0.095062    -65.840584    -17.567860    -32.875870    -12.538002    21.479357    19.213921    -10.994800    10.739322    21.510489    -5.890650    -13.962200    -24.590408    -10.480030    13.498883    -9.944031    -13.141542    -9.131638    -6.552749    -65.115784    9.035972    -20.820602    -24.999704    53.250141    -13.798667    10.641026    9.743819    -3.481921    32.819584    23.639091    -12.905330    66.385406    -6.918838    -51.159847    14.146737    -43.966454    -44.007668    -23.790014    5.451136    -3.501912    6.148017    -4.601449    41.445953    -9.769167    -17.647032    -16.560080    1.607675    0.000000    0.000000    0.000000    -80.765564    -67.036583    -59.965508    34.349655    64.023140    23.649406    -18.610651    -14.717609    -40.600090    0.000000    0.000000    0.000000    
3.603002    85.533127    10.098949    31.035318    -0.984725    -66.161591    -16.950123    -31.785429    -11.617216    21.857752    18.102991    -10.282156    10.170200    21.192749    -6.415107    -14.196864    -25.066666    -11.223679    13.178463    -10.308498    -14.152044    -8.028508    -8.974404    -67.926079    6.586361    -19.698303    -16.390530    55.126183    -14.054456    9.458873    9.868867    -3.630983    33.859890    27.263222    -16.510227    68.594620    -9.885206    -51.408596    7.084391    -40.251469    -45.369347    -22.834364    4.335655    -3.001480    5.233482    -4.192983    40.841103    -9.980262    -17.244509    -15.817295    1.421653    0.000000    0.000000    0.000000    -82.913506    -66.649956    -61.558868    36.161762    64.728226    24.151972    -18.695534    -13.976634    -41.658806    0.000000    0.000000    0.000000    
3.437989    85.411507    10.601455    31.606419    -1.994229    -66.589806    -16.298559    -30.796373    -10.639959    21.696386    16.698389    -9.344685    10.603281    21.819407    -7.023354    -15.632859    -26.530968    -12.476604    13.130042    -10.348265    -15.624055    -4.742867    -9.930923    -68.379906    5.370420    -20.913305    -10.562039    52.785679    -16.137194    9.129404    10.093701    -3.528512    34.387043    32.145916    -19.915833    71.977806    -12.688512    -50.537033    0.888162    -35.883839    -45.959328    -20.692993    2.883881    -2.804945    4.518386    -3.709747    40.181614    -10.218549    -17.212914    -14.944172    1.215936    0.000000    0.000000    0.000000    -86.182205    -66.390854    -64.254341    37.702354    65.341400    22.359049    -17.730959    -13.828024    -39.987022    0.000000    0.000000    0.000000    
